<svg width="320" height="460" viewBox="0 0 320 460" fill="none" xmlns="http://www.w3.org/2000/svg">
<path d="M316.319 90.6628C315.632 89.6321 314.258 89.8469 313.785 91.0063C313.098 92.5952 313.141 95.3436 312.111 96.8037C310.651 98.865 306.957 98.3067 307 100.497C307.043 102.73 310.822 101.528 312.497 103.589C314.172 105.65 312.712 109.601 315.46 109.987C317.693 110.288 316.061 105.135 318.724 103.374C321.344 101.613 323.705 102.644 323.534 100.454C323.405 98.4785 318.939 99.0368 317.865 96.6749C317.006 94.8283 317.35 92.1658 316.319 90.6628Z" fill="white"/>
<path d="M188.591 0.397671C188.179 -0.220716 187.355 -0.0918848 187.071 0.603801C186.659 1.55715 186.685 3.20618 186.066 4.08223C185.19 5.319 182.974 4.98404 183 6.29811C183.026 7.63795 185.293 6.9165 186.298 8.15328C187.303 9.39005 186.427 11.7605 188.076 11.9924C189.416 12.1728 188.437 9.08086 190.034 8.02445C191.606 6.96804 193.023 7.58642 192.92 6.27235C192.843 5.08711 190.163 5.42207 189.519 4.00493C189.004 2.89699 189.21 1.29949 188.591 0.397671Z" fill="white"/>
<path d="M321.319 305.663C320.632 304.632 319.258 304.847 318.785 306.006C318.098 307.595 318.141 310.344 317.111 311.804C315.651 313.865 311.957 313.307 312 315.497C312.043 317.73 315.822 316.528 317.497 318.589C319.172 320.65 317.712 324.601 320.46 324.987C322.693 325.288 321.061 320.135 323.724 318.374C326.344 316.613 328.705 317.644 328.534 315.454C328.405 313.479 323.939 314.037 322.865 311.675C322.006 309.828 322.35 307.166 321.319 305.663Z" fill="white"/>
<path d="M305.319 409.663C304.632 408.632 303.258 408.847 302.785 410.006C302.098 411.595 302.141 414.344 301.111 415.804C299.651 417.865 295.957 417.307 296 419.497C296.043 421.73 299.822 420.528 301.497 422.589C303.172 424.65 301.712 428.601 304.46 428.987C306.693 429.288 305.061 424.135 307.724 422.374C310.344 420.613 312.705 421.644 312.534 419.454C312.405 417.479 307.939 418.037 306.865 415.675C306.006 413.828 306.35 411.166 305.319 409.663Z" fill="white"/>
<path d="M2.6382 37.3256C1.264 35.2643 -1.48435 35.6937 -2.42911 38.0127C-3.8033 41.1905 -3.71744 46.6873 -5.77873 49.6074C-8.69889 53.73 -16.0851 52.6135 -15.9993 56.9937C-15.9134 61.4598 -8.35532 59.055 -5.00572 63.1776C-1.65613 67.3002 -4.57632 75.2018 0.920456 75.9748C5.38658 76.576 2.12291 66.2695 7.4479 62.7482C12.687 59.2268 17.4108 61.2881 17.0673 56.9078C16.8096 52.957 7.87734 54.0736 5.73016 49.3498C4.01242 45.6566 4.69949 40.3316 2.6382 37.3256Z" fill="white"/>
<path d="M95.3191 440.663C94.632 439.632 93.2578 439.847 92.7854 441.006C92.0983 442.595 92.1413 445.344 91.1106 446.804C89.6506 448.865 85.9574 448.307 86.0004 450.497C86.0433 452.73 89.8223 451.528 91.4971 453.589C93.1719 455.65 91.7118 459.601 94.4602 459.987C96.6933 460.288 95.0615 455.135 97.724 453.374C100.344 451.613 102.705 452.644 102.534 450.454C102.405 448.479 97.9387 449.037 96.8651 446.675C96.0062 444.828 96.3497 442.166 95.3191 440.663Z" fill="white"/>
<path d="M261.319 20.6628C260.632 19.6321 259.258 19.8469 258.785 21.0063C258.098 22.5952 258.141 25.3436 257.111 26.8037C255.651 28.865 251.957 28.3067 252 30.4969C252.043 32.7299 255.822 31.5275 257.497 33.5888C259.172 35.6501 257.712 39.6009 260.46 39.9874C262.693 40.288 261.061 35.1348 263.724 33.3741C266.344 31.6134 268.705 32.644 268.534 30.4539C268.405 28.4785 263.939 29.0368 262.865 26.6749C262.006 24.8283 262.35 22.1658 261.319 20.6628Z" fill="white"/>
</svg>
