<?xml version="1.0" standalone="no"?>
<!DOCTYPE svg PUBLIC "-//W3C//DTD SVG 20010904//EN"
 "http://www.w3.org/TR/2001/REC-SVG-20010904/DTD/svg10.dtd">
<svg version="1.0" xmlns="http://www.w3.org/2000/svg"
 width="1000.000000pt" height="1000.000000pt" viewBox="0 0 1000.000000 1000.000000"
 preserveAspectRatio="xMidYMid meet">

<g transform="translate(0.000000,1000.000000) scale(0.100000,-0.100000)"
fill="#000000" stroke="none">
<path d="M7552 7969 c-67 -33 -105 -72 -133 -134 -10 -23 -21 -44 -25 -47 -3
-4 -18 15 -31 43 -28 55 -80 96 -158 124 -79 29 -307 31 -540 6 -104 -11 -213
-27 -242 -36 -54 -16 -103 -61 -103 -95 0 -10 -15 -36 -34 -59 -20 -24 -37
-56 -40 -78 -24 -161 -45 -540 -46 -833 -1 -175 -2 -193 -16 -175 -35 48 -72
80 -114 99 -39 17 -61 20 -155 17 -60 -2 -131 -4 -157 -5 -25 0 -50 3 -54 7
-19 19 -21 148 -7 397 26 461 3 613 -110 717 -79 73 -216 81 -323 18 -45 -26
-57 -42 -132 -170 -88 -151 -98 -208 -111 -670 -14 -466 -1 -624 65 -772 46
-106 148 -185 256 -199 53 -7 511 21 593 37 33 6 72 17 87 25 38 20 94 79 109
117 7 18 28 54 46 81 30 43 33 46 33 22 0 -80 70 -182 155 -224 100 -49 272
-58 550 -27 202 22 262 52 306 151 10 22 28 52 39 67 36 45 53 99 53 167 0
152 -108 270 -247 270 l-37 0 20 29 c12 16 21 34 21 39 0 5 15 32 33 58 45 67
57 97 64 164 7 67 -7 118 -49 175 -20 28 -25 41 -16 44 124 38 171 73 205 150
l25 55 37 -69 c20 -39 111 -194 201 -345 l164 -275 0 -250 c1 -239 2 -252 24
-300 47 -103 124 -155 237 -163 123 -7 232 53 276 153 10 23 28 54 40 69 52
66 59 109 59 361 0 175 3 244 13 268 8 18 55 93 105 167 180 268 268 426 278
501 26 187 -188 357 -372 295 -75 -25 -114 -64 -213 -212 l-90 -135 -24 38
c-13 21 -53 86 -87 145 -106 180 -167 227 -296 228 -59 0 -81 -5 -132 -31z
m193 -40 c55 -15 109 -75 181 -198 116 -199 113 -196 164 -196 l45 0 85 127
c128 191 160 218 259 218 112 0 211 -89 219 -197 5 -75 -9 -101 -221 -423
l-161 -245 -8 -265 c-4 -146 -13 -282 -18 -302 -24 -86 -102 -137 -208 -138
-92 0 -146 31 -186 105 -19 37 -21 59 -26 305 l-5 265 -180 300 c-179 299
-224 388 -225 435 0 72 49 154 114 187 65 34 108 39 171 22z m-580 -34 c100
-29 148 -78 161 -164 8 -56 -9 -127 -39 -160 -48 -53 -101 -65 -351 -81 -123
-7 -141 -11 -162 -31 -31 -29 -32 -84 -2 -116 19 -20 31 -23 97 -23 66 0 83
-4 128 -30 95 -55 129 -158 84 -257 -25 -53 -50 -69 -166 -103 -114 -33 -141
-50 -150 -89 -17 -80 48 -118 175 -103 70 8 125 7 177 -4 30 -6 90 -60 110
-98 23 -44 22 -141 -1 -189 -33 -68 -73 -86 -237 -103 -79 -9 -205 -17 -279
-17 -163 -1 -230 15 -291 70 -71 65 -72 69 -77 431 -6 465 22 966 56 1005 30
34 94 44 507 81 67 6 207 -4 260 -19z m-1630 -19 c83 -63 111 -191 101 -461
-3 -99 -9 -259 -12 -356 -8 -204 -2 -259 31 -297 l23 -27 174 0 c193 0 215 -6
261 -67 87 -118 44 -275 -87 -313 -55 -16 -221 -30 -467 -41 -153 -7 -157 -6
-212 19 -107 49 -167 176 -188 395 -14 151 4 831 25 938 35 173 111 247 247
241 55 -2 73 -7 104 -31z"/>
<path d="M1840 7975 c-36 -8 -107 -35 -159 -61 -138 -68 -233 -163 -333 -331
-88 -149 -112 -210 -127 -317 -15 -106 4 -198 56 -275 21 -31 39 -59 41 -62 1
-3 -15 -11 -37 -17 -45 -14 -101 -72 -101 -104 0 -12 -14 -36 -31 -54 -95 -98
-29 -291 161 -467 77 -71 155 -117 245 -142 47 -14 82 -17 165 -12 138 8 242
35 369 98 137 67 222 150 308 299 61 106 85 168 99 250 7 37 11 10 25 -150 10
-107 18 -222 18 -255 1 -83 17 -130 57 -175 110 -122 361 -77 435 77 12 27 33
62 47 80 38 51 52 115 52 235 0 61 3 108 8 106 67 -35 94 -42 157 -43 75 0
120 14 173 53 18 13 36 21 39 18 4 -3 9 -97 13 -208 7 -213 12 -241 61 -310
33 -46 110 -78 189 -78 111 0 203 59 250 160 12 25 32 60 46 79 35 49 40 78
65 346 32 341 33 727 2 869 -51 232 -152 336 -313 324 -111 -8 -190 -71 -326
-260 -47 -65 -94 -123 -105 -129 -36 -19 -62 7 -192 193 -62 88 -129 154 -188
183 -128 66 -300 -4 -380 -154 -17 -31 -43 -78 -59 -106 -16 -27 -39 -90 -52
-140 -20 -81 -22 -115 -23 -340 0 -137 -1 -239 -3 -225 -2 14 -12 58 -23 98
-62 234 -199 323 -534 348 l-100 7 43 19 c24 11 82 26 130 34 48 9 104 25 124
37 38 21 88 82 88 106 0 7 14 31 31 52 97 123 41 287 -113 334 -76 23 -219 28
-298 10z m302 -83 c59 -26 88 -70 88 -133 0 -49 -23 -89 -63 -111 -12 -6 -64
-19 -117 -29 -166 -33 -257 -93 -290 -195 -16 -49 1 -90 44 -103 17 -5 81 -12
141 -15 298 -17 422 -104 470 -333 54 -252 -44 -443 -290 -564 -139 -68 -203
-83 -360 -84 -120 0 -134 2 -185 26 -163 77 -323 264 -338 395 -5 52 8 77 52
98 73 34 163 7 216 -65 41 -57 70 -75 145 -89 72 -14 158 -4 271 31 111 34
160 102 123 171 -11 21 -74 52 -88 43 -17 -10 -221 16 -288 36 -192 59 -307
173 -320 319 -8 83 12 165 63 268 80 164 241 298 415 347 79 22 249 15 311
-13z m855 -68 c48 -28 102 -89 202 -232 80 -114 115 -142 178 -142 50 0 76 23
165 148 93 133 141 185 198 216 45 24 60 28 115 24 82 -5 123 -36 164 -121 57
-121 66 -191 65 -507 0 -289 -30 -701 -55 -767 -12 -33 -64 -90 -99 -108 -67
-34 -154 -26 -208 20 -54 45 -64 88 -71 318 -6 204 -7 209 -30 228 -30 24 -62
24 -94 -1 -72 -57 -177 -76 -240 -44 -18 9 -53 36 -79 60 -62 58 -105 59 -133
3 -12 -22 -15 -73 -15 -238 0 -223 -4 -248 -48 -295 -79 -85 -257 -89 -310 -8
-12 18 -21 81 -33 246 -10 121 -23 288 -30 371 -13 170 -7 523 11 600 19 78
66 170 102 197 95 72 160 81 245 32z m-1322 -1060 l60 -14 -53 5 c-28 2 -60 9
-70 14 -23 14 -9 13 63 -5z"/>
<path d="M4521 7975 c-30 -9 -68 -24 -85 -35 -46 -28 -103 -90 -120 -130 -8
-19 -26 -50 -40 -69 -64 -86 -73 -214 -21 -329 l28 -62 -8 -347 -7 -347 -38
-63 c-137 -228 -21 -446 251 -470 77 -7 184 10 252 39 47 20 127 98 127 123 0
7 16 36 36 65 66 96 69 207 9 338 l-26 57 7 342 c7 335 7 343 30 380 66 107
79 145 79 228 0 67 -5 88 -27 130 -34 65 -70 98 -141 130 -74 34 -222 44 -306
20z m279 -79 c49 -25 88 -64 112 -110 16 -31 19 -54 16 -105 -3 -67 -23 -112
-81 -184 -22 -28 -22 -36 -29 -395 l-7 -366 31 -71 c43 -96 49 -193 16 -249
-13 -22 -38 -48 -55 -59 -81 -47 -237 -61 -332 -30 -61 19 -128 74 -147 120
-32 74 -11 176 53 260 l28 36 8 368 8 368 -30 70 c-71 160 -17 309 129 356 64
21 233 15 280 -9z"/>
<path d="M5255 5871 c-99 -14 -164 -62 -216 -160 -17 -31 -41 -75 -55 -97 -55
-94 -37 -212 44 -293 63 -62 118 -82 257 -90 l110 -6 -5 -290 c-3 -159 -5
-387 -5 -505 0 -197 2 -219 21 -260 57 -123 200 -184 328 -141 54 19 124 86
153 146 13 28 34 65 48 83 13 18 28 54 34 80 5 26 13 237 17 468 l7 422 106 4
c158 6 220 40 283 158 16 30 41 75 55 98 59 100 36 233 -54 312 -78 68 -83 69
-608 74 -258 3 -492 1 -520 -3z m1025 -87 c109 -46 149 -157 95 -264 -39 -77
-78 -93 -247 -100 -118 -4 -140 -8 -165 -26 -15 -11 -31 -32 -34 -45 -4 -13
-8 -143 -9 -289 -1 -146 -5 -366 -9 -490 -6 -215 -7 -227 -31 -268 -72 -128
-257 -128 -330 0 -24 42 -25 48 -25 253 0 116 2 346 5 512 l5 302 -23 23 c-20
21 -35 24 -145 29 -162 7 -222 37 -262 131 -45 110 29 230 154 250 25 4 257 5
516 2 383 -4 476 -8 505 -20z"/>
<path d="M7051 5864 c-36 -7 -108 -35 -160 -61 -131 -65 -239 -172 -331 -328
-108 -185 -135 -272 -128 -410 5 -88 29 -155 78 -216 l29 -37 -34 -6 c-43 -8
-101 -62 -111 -102 -3 -16 -17 -40 -29 -54 -36 -40 -45 -65 -45 -122 1 -174
220 -424 428 -488 164 -51 450 4 625 120 122 81 166 134 278 336 45 80 62 164
56 269 -11 171 -57 285 -149 370 -86 80 -197 115 -413 131 l-100 7 40 18 c22
10 80 25 130 34 134 25 178 52 211 130 9 22 27 52 39 67 78 92 51 248 -54 306
-86 49 -235 64 -360 36z m241 -65 c103 -22 148 -68 148 -152 0 -45 -23 -87
-59 -107 -10 -5 -63 -18 -118 -29 -166 -34 -233 -74 -278 -165 -24 -49 -26
-59 -16 -89 16 -46 36 -53 206 -65 268 -20 379 -90 436 -272 11 -36 23 -106
26 -155 9 -146 -28 -244 -132 -347 -132 -131 -317 -201 -530 -202 l-121 -1
-79 39 c-63 31 -99 58 -165 125 -106 107 -153 193 -148 273 4 67 34 92 111 92
67 0 110 -23 150 -80 54 -77 159 -108 293 -85 202 34 289 103 249 197 -17 41
-49 51 -190 57 -238 12 -440 121 -489 264 -50 147 12 356 150 502 158 169 360
241 556 200z m-391 -1148 c43 -9 43 -9 9 -9 -19 -1 -48 5 -65 13 -17 8 -21 12
-9 10 12 -3 42 -10 65 -14z"/>
<path d="M4276 5838 c-73 -38 -135 -113 -243 -293 -38 -65 -488 -1060 -539
-1193 -42 -110 -29 -198 41 -268 108 -107 294 -96 449 28 34 28 81 55 110 63
78 23 224 38 306 31 124 -11 153 -23 226 -87 81 -72 152 -101 246 -101 109 0
196 51 239 140 13 26 35 64 50 85 37 52 53 129 39 192 -6 26 -37 98 -69 159
-33 61 -109 237 -171 391 -261 654 -411 876 -590 874 -36 0 -69 -7 -94 -21z
m149 -57 c76 -35 177 -165 268 -346 54 -109 100 -217 224 -525 52 -129 121
-286 154 -348 72 -134 82 -187 50 -250 -38 -74 -125 -120 -207 -108 -63 8
-121 39 -192 101 -37 32 -79 59 -103 65 -77 21 -199 29 -292 20 -176 -17 -245
-40 -326 -111 -83 -74 -219 -101 -299 -60 -64 33 -85 64 -90 130 -4 56 0 68
81 252 154 352 437 973 462 1014 39 66 112 141 157 164 52 25 62 26 113 2z"/>
<path d="M4303 5110 c-71 -43 -90 -158 -38 -225 15 -20 38 -40 52 -46 41 -15
106 -10 141 11 36 22 71 87 72 132 0 47 -30 106 -65 128 -43 26 -119 27 -162
0z m65 -182 c12 -10 17 -38 6 -38 -22 0 -64 35 -64 53 0 10 39 -1 58 -15z"/>
<path d="M2950 5810 c-233 -63 -405 -206 -564 -469 -156 -257 -216 -442 -216
-671 0 -307 165 -549 434 -636 69 -23 100 -27 206 -27 88 -1 144 4 190 16 88
23 213 86 279 140 59 50 138 141 147 172 3 11 21 43 40 70 31 47 64 144 64
190 0 57 -33 129 -80 176 -116 116 -300 104 -453 -31 -84 -73 -151 -79 -183
-17 -21 40 -14 144 16 240 38 121 97 157 289 177 154 16 230 63 292 179 17 31
42 75 56 99 77 131 9 317 -140 383 -76 33 -270 38 -377 9z m257 -50 c78 -10
135 -34 170 -72 75 -81 68 -230 -15 -300 -43 -36 -101 -54 -214 -67 -182 -20
-251 -67 -332 -220 -39 -75 -86 -238 -86 -300 0 -190 160 -246 315 -110 78 68
124 89 203 89 75 0 116 -16 159 -61 56 -60 67 -124 36 -214 -28 -77 -145 -190
-253 -244 -115 -56 -207 -74 -340 -68 -217 11 -382 115 -476 300 -51 99 -67
174 -67 302 0 124 12 201 50 313 117 352 389 612 678 651 83 12 91 12 172 1z"/>
<path d="M2040 3735 c-36 -8 -107 -35 -159 -61 -138 -68 -233 -163 -333 -331
-88 -149 -112 -210 -127 -317 -15 -106 4 -198 56 -275 21 -31 39 -59 41 -62 1
-3 -15 -11 -37 -17 -45 -14 -101 -72 -101 -104 0 -12 -14 -36 -31 -54 -95 -98
-29 -291 161 -467 77 -71 155 -117 245 -142 47 -14 82 -17 165 -12 138 8 242
35 369 98 83 41 118 65 175 122 82 82 182 244 213 345 l19 62 37 -95 c55 -145
119 -247 217 -346 99 -99 187 -150 299 -169 85 -16 187 -2 270 35 67 31 82 31
112 -1 104 -113 323 -66 387 84 12 27 28 54 36 61 7 6 24 35 36 63 31 73 24
135 -35 283 l-46 118 20 81 c65 257 42 508 -68 731 -84 170 -209 284 -376 341
-66 23 -97 28 -180 28 -249 0 -429 -119 -584 -388 -86 -149 -125 -255 -148
-400 l-17 -104 -22 49 c-71 151 -218 224 -499 245 l-100 7 43 19 c24 11 82 26
130 34 48 9 104 25 124 37 38 21 88 82 88 106 0 7 14 31 31 52 97 123 41 287
-113 334 -76 23 -219 28 -298 10z m302 -83 c57 -25 88 -70 88 -127 0 -87 -40
-119 -176 -146 -170 -33 -261 -93 -294 -195 -15 -45 1 -88 38 -102 15 -6 79
-13 142 -16 302 -16 426 -103 475 -333 36 -168 6 -305 -90 -414 -84 -95 -210
-170 -352 -211 -62 -18 -104 -22 -208 -23 -127 0 -132 1 -195 32 -120 59 -239
177 -295 291 -51 103 -44 166 20 197 72 33 163 5 215 -66 41 -57 70 -75 145
-89 72 -14 158 -4 271 31 111 34 160 102 123 171 -11 21 -74 52 -88 43 -17
-10 -221 16 -288 36 -308 94 -400 315 -251 603 79 151 244 284 409 331 79 22
249 15 311 -13z m1159 8 c160 -30 321 -163 403 -331 101 -210 120 -449 56
-693 -24 -89 -22 -100 44 -256 52 -124 48 -199 -16 -256 -37 -34 -84 -54 -127
-54 -54 0 -82 12 -130 56 -35 31 -46 35 -78 31 -21 -2 -66 -17 -101 -31 -162
-70 -321 -34 -466 103 -105 101 -187 236 -239 396 -35 108 -47 182 -47 289 0
240 76 443 219 587 136 137 304 192 482 159z m-1626 -1136 l60 -14 -53 5 c-28
2 -60 9 -70 14 -23 14 -9 13 63 -5z"/>
<path d="M3354 3019 c-98 -27 -126 -160 -48 -228 61 -54 158 -38 199 32 20 34
23 103 6 135 -26 49 -99 77 -157 61z"/>
<path d="M4399 3741 c-54 -11 -125 -57 -154 -99 -14 -20 -25 -41 -25 -46 0 -5
-16 -33 -36 -61 -60 -88 -68 -155 -68 -610 -1 -341 1 -403 18 -490 57 -308
183 -461 419 -512 123 -26 337 -5 535 53 17 5 22 2 22 -13 0 -21 30 -53 67
-72 12 -6 46 -11 76 -11 79 0 134 32 169 99 15 28 37 65 48 81 11 16 27 44 35
62 l14 33 1 -40 c0 -69 19 -115 65 -161 108 -107 294 -96 449 28 34 28 81 55
110 63 78 23 224 38 306 31 124 -11 153 -23 226 -87 81 -72 152 -101 246 -101
109 0 196 51 239 140 13 26 35 63 49 83 l26 36 16 -56 c20 -67 70 -124 137
-155 48 -22 157 -29 446 -30 180 0 288 47 431 189 135 134 263 360 315 555
127 485 -104 966 -507 1056 -63 13 -104 15 -223 10 -179 -8 -152 -8 -239 0
-57 5 -82 3 -119 -11 -56 -22 -136 -93 -154 -138 -7 -18 -23 -47 -37 -66 -55
-74 -62 -113 -63 -354 -1 -122 -4 -345 -8 -495 l-6 -273 -51 98 c-29 54 -102
224 -164 378 -260 651 -410 875 -588 875 -116 0 -193 -71 -338 -315 -17 -27
-118 -246 -226 -485 -247 -548 -275 -609 -309 -695 l-28 -70 -1 666 c0 735 1
727 -63 811 -18 24 -51 53 -72 65 -123 69 -244 19 -331 -137 -20 -36 -48 -84
-61 -108 -30 -51 -38 -127 -53 -512 -10 -267 -29 -416 -56 -457 -34 -52 -140
-15 -179 62 -19 39 -20 57 -17 510 2 339 0 482 -9 513 -31 110 -162 187 -280
163z m145 -90 c20 -13 46 -41 57 -63 19 -38 20 -55 17 -277 -7 -537 -4 -692
14 -752 23 -73 50 -106 112 -135 98 -46 185 -20 236 70 62 107 86 249 100 585
16 402 18 428 36 463 72 140 184 169 276 71 60 -62 58 -40 58 -781 l0 -679
-23 -34 c-31 -47 -93 -67 -145 -47 -24 9 -38 21 -40 35 -4 30 -35 54 -68 55
-16 0 -64 -9 -106 -20 -122 -33 -232 -45 -348 -40 -95 5 -117 10 -179 38 -159
74 -247 228 -282 500 -16 123 -15 625 1 785 16 158 39 203 120 240 46 20 118
14 164 -14z m1931 0 c22 -10 65 -45 96 -78 104 -112 202 -306 379 -748 62
-154 141 -335 176 -403 68 -131 77 -172 50 -235 -26 -64 -111 -117 -187 -117
-51 0 -129 31 -179 73 -29 23 -64 52 -79 64 -43 36 -132 53 -267 54 -194 0
-323 -34 -401 -105 -62 -55 -137 -86 -211 -86 -78 0 -118 16 -161 65 -32 36
-33 41 -29 104 4 58 18 96 110 301 436 974 428 957 513 1049 38 42 103 81 135
81 8 0 33 -9 55 -19z m1590 -13 c171 -35 326 -175 415 -372 183 -406 -16 -990
-390 -1142 -52 -21 -87 -28 -171 -32 -58 -2 -128 0 -155 6 -27 5 -73 7 -102 3
-122 -17 -221 21 -264 102 l-23 42 2 624 1 623 24 47 c16 30 41 58 73 80 l50
33 100 -5 c55 -3 136 -2 180 2 91 8 187 4 260 -11z"/>
<path d="M6363 2984 c-46 -23 -75 -75 -76 -132 -1 -90 57 -152 142 -152 131 0
197 159 107 258 -28 30 -40 36 -87 39 -37 2 -64 -2 -86 -13z m55 -186 c12 -10
17 -38 6 -38 -22 0 -64 35 -64 53 0 10 39 -1 58 -15z"/>
<path d="M7889 2985 c-41 -22 -63 -64 -63 -122 -2 -163 221 -194 263 -37 11
40 5 79 -18 121 -24 46 -128 68 -182 38z m46 -185 c3 -6 -1 -7 -9 -4 -18 7
-21 14 -7 14 6 0 13 -4 16 -10z"/>
</g>
</svg>
