<?xml version="1.0" standalone="no"?>
<!DOCTYPE svg PUBLIC "-//W3C//DTD SVG 20010904//EN"
 "http://www.w3.org/TR/2001/REC-SVG-20010904/DTD/svg10.dtd">
<svg version="1.0" xmlns="http://www.w3.org/2000/svg"
 width="699.000000pt" height="699.000000pt" viewBox="0 0 699.000000 699.000000"
 preserveAspectRatio="xMidYMid meet">

<g transform="translate(0.000000,699.000000) scale(0.100000,-0.100000)"
fill="#000000" stroke="none">
<path d="M690 5518 c0 -568 -3 -1056 -6 -1085 l-7 -52 486 -3 c267 -2 489 -7
494 -11 4 -5 9 -729 11 -1609 l2 -1601 -130 5 c-71 3 -133 8 -138 12 -4 4 -8
664 -10 1467 l-2 1459 -350 0 -350 0 0 -1820 0 -1820 840 0 840 0 0 2309 0
2310 -479 3 c-264 2 -483 7 -488 11 -11 11 -11 733 0 744 11 11 243 11 254 0
4 -5 10 -116 11 -248 l4 -239 349 0 349 0 0 600 0 600 -840 0 -840 0 0 -1032z"/>
<path d="M2640 6480 l0 -70 -30 0 -30 0 0 -2940 0 -2940 30 0 c28 0 30 -3 30
-35 l0 -35 845 0 845 0 0 1820 0 1820 -355 0 -355 0 0 -805 0 -805 -30 0 -30
0 0 -525 0 -525 30 0 30 0 0 -105 0 -105 -30 0 c-28 0 -30 -3 -30 -35 l0 -35
-105 0 -105 0 0 2275 0 2275 105 0 105 0 0 -35 c0 -32 2 -35 30 -35 l30 0 0
-175 0 -175 -30 0 -30 0 0 -175 0 -175 30 0 30 0 0 -70 0 -70 -30 0 -30 0 0
-210 0 -210 385 0 385 0 0 1085 0 1085 -845 0 -845 0 0 -70z"/>
<path d="M4610 5465 l0 -1085 455 0 455 0 0 -1610 0 -1610 -105 0 -105 0 0
1470 0 1470 -350 0 -350 0 0 -1258 c0 -693 -3 -1354 -7 -1470 l-6 -212 -29 0
c-25 0 -28 -3 -28 -35 0 -32 2 -35 30 -35 l30 0 0 -103 c0 -57 3 -199 7 -315
l6 -212 839 0 838 0 0 2310 0 2310 -490 0 -490 0 0 385 0 385 105 0 105 0 0
-244 0 -243 53 -7 c28 -3 170 -6 315 -6 l262 0 0 -30 0 -30 70 0 70 0 0 630 0
630 -840 0 -840 0 0 -1085z"/>
</g>
</svg>
